<svg xmlns="http://www.w3.org/2000/svg" viewBox="0 0 512 512">
  <rect width="512" height="512" rx="108" fill="#030303"/>

  <!-- Tail wedge -->
  <path d="M 168 312 L 96 192 L 204 300 Z" fill="#a0d2b3"/>

  <!-- Body: half oval sitting on waterline y=336 -->
  <path d="
    M 128 336
    Q 120 256, 232 240
    Q 360 232, 432 272
    Q 464 300, 448 336 Z
  " fill="#a0d2b3"/>

  <!-- Wing -->
  <path d="M 272 288 Q 336 264, 400 296 Q 344 320, 272 304 Z" fill="#4d9070"/>

  <!-- Head -->
  <circle cx="236" cy="188" r="88" fill="#a0d2b3"/>

  <!-- Bill -->
  <path d="M 320 184 Q 392 176, 392 204 Q 392 228, 320 220 Z" fill="#4d9070"/>
  <path d="M 332 202 L 380 202" stroke="#2d5a3e" stroke-width="3" stroke-linecap="round"/>

  <!-- Eye -->
  <circle cx="262" cy="168" r="13" fill="#030303"/>
  <circle cx="266" cy="164" r="4" fill="#ffffff"/>

  <!-- Water surface line -->
  <path d="M 48 336 L 128 336 M 448 336 L 464 336" stroke="#4d9070" stroke-width="6" stroke-linecap="round"/>

  <!-- Ripples (staggered) -->
  <g fill="none" stroke="#4d9070" stroke-width="7" stroke-linecap="round" opacity="0.85">
    <path d="M 80 376 Q 176 368, 240 376"/>
    <path d="M 280 376 Q 368 368, 432 376"/>
    <path d="M 128 416 Q 216 408, 288 416"/>
    <path d="M 320 416 Q 392 408, 432 416"/>
    <path d="M 96 456 Q 200 448, 272 456"/>
    <path d="M 304 456 Q 384 448, 416 456"/>
  </g>
</svg>
